<?xml version="1.0" standalone="no"?>
<!DOCTYPE svg PUBLIC "-//W3C//DTD SVG 20010904//EN"
 "http://www.w3.org/TR/2001/REC-SVG-20010904/DTD/svg10.dtd">
<svg version="1.0" xmlns="http://www.w3.org/2000/svg"
 width="900.000000pt" height="300.000000pt" viewBox="0 0 900.000000 300.000000"
 preserveAspectRatio="xMidYMid meet">

<g transform="translate(0.000000,300.000000) scale(0.100000,-0.100000)"
fill="#000000" stroke="none">
<path d="M642 2749 c-194 -34 -445 -169 -547 -293 -144 -176 -117 -390 64
-513 204 -140 495 -106 651 76 69 80 130 230 130 318 0 41 -30 73 -68 73 -55
0 -64 -17 -78 -140 -7 -61 -20 -133 -29 -160 -55 -165 -182 -243 -334 -206
-188 46 -293 211 -261 411 14 92 48 163 105 224 90 96 189 134 346 133 126 -1
224 -19 509 -97 263 -72 359 -92 474 -103 l78 -7 -132 -140 c-152 -160 -351
-385 -496 -560 -216 -261 -614 -782 -614 -803 0 -19 42 -14 66 9 26 25 80 38
150 39 36 0 55 5 66 18 8 9 70 109 138 222 212 352 385 609 559 830 80 101
259 306 309 354 l31 29 105 -17 c58 -9 147 -16 199 -16 81 0 99 3 128 23 27
18 35 31 37 59 3 30 -1 40 -22 53 -23 15 -30 15 -119 -14 -214 -68 -299 -67
-503 10 -229 85 -444 157 -524 174 -89 19 -343 28 -418 14z"/>
<path d="M8867 2682 c-21 -13 -75 -103 -211 -357 -219 -409 -322 -594 -433
-778 -46 -76 -81 -143 -78 -148 15 -23 37 -2 90 84 65 104 251 377 460 672
248 351 295 423 295 454 0 43 -9 60 -41 76 -36 19 -48 19 -82 -3z"/>
<path d="M4763 2405 c-38 -16 -105 -100 -330 -410 -293 -404 -435 -588 -512
-665 -135 -134 -300 -225 -369 -202 -59 19 -38 72 102 247 115 145 156 217
156 274 0 90 -86 119 -185 62 -73 -42 -176 -141 -336 -324 -176 -201 -209
-232 -209 -189 0 29 99 151 232 284 139 140 163 179 134 223 -21 31 -72 34
-108 5 -14 -11 -45 -52 -68 -92 -100 -170 -182 -279 -259 -344 -83 -70 -198
-134 -241 -134 -15 0 -39 9 -53 20 -69 55 -39 113 153 301 132 128 170 176
170 210 0 5 -11 21 -25 34 -36 37 -80 33 -121 -11 -19 -19 -34 -29 -34 -21 0
7 -11 24 -25 37 -50 47 -176 23 -319 -61 -51 -30 -121 -91 -243 -213 -177
-174 -290 -263 -371 -290 -91 -32 -140 -14 -128 46 6 34 38 84 160 253 127
175 143 256 60 291 -34 14 -41 14 -81 -1 -60 -23 -186 -145 -350 -337 -151
-178 -183 -205 -183 -155 0 86 401 601 636 816 161 148 243 234 249 262 8 37
-15 76 -50 85 -66 17 -102 -22 -435 -476 -107 -146 -281 -381 -387 -522 -106
-142 -199 -272 -208 -288 -24 -46 -16 -92 18 -108 43 -21 82 -6 126 46 22 26
95 115 164 197 68 83 174 198 235 258 91 88 116 107 141 107 16 0 33 -4 36
-10 11 -18 -24 -74 -101 -160 -214 -241 -256 -343 -175 -424 27 -27 38 -31 84
-30 88 0 209 71 369 214 l67 61 -14 -42 c-46 -129 19 -229 142 -216 67 7 134
44 228 124 72 61 73 62 59 28 -8 -19 -14 -52 -14 -74 0 -53 43 -91 103 -91 53
0 153 46 231 107 57 45 58 45 42 15 -21 -41 -20 -68 4 -92 24 -24 68 -25 96
-2 11 9 79 87 150 172 277 334 438 470 491 417 22 -21 -2 -61 -99 -165 -170
-183 -228 -268 -228 -337 0 -40 34 -93 68 -106 72 -28 193 17 335 125 l88 67
-35 -53 c-41 -60 -46 -105 -16 -133 49 -44 103 -14 164 93 24 42 66 115 92
161 82 141 260 299 384 341 64 22 100 14 119 -25 30 -61 -43 -135 -177 -180
-41 -14 -97 -25 -125 -25 -62 0 -101 -18 -105 -46 -5 -34 23 -47 101 -48 66
-1 72 -3 75 -23 2 -16 -14 -41 -57 -87 -73 -78 -79 -110 -30 -158 29 -29 33
-30 94 -26 118 10 313 123 479 278 64 61 93 97 83 106 -2 3 -31 -21 -63 -52
-150 -145 -347 -255 -404 -224 -29 16 -25 50 15 106 19 27 35 59 35 71 0 33
-34 62 -81 69 l-42 7 77 28 c136 50 235 119 272 191 40 77 -14 168 -99 168
-85 -1 -210 -71 -360 -203 l-80 -71 29 50 c62 108 119 192 167 249 107 126
241 264 368 380 142 130 174 177 158 225 -6 15 -21 32 -35 39 -31 14 -31 14
-71 -4z m-1959 -721 c54 -53 -37 -228 -205 -395 -103 -102 -189 -157 -229
-144 -71 23 -81 111 -24 223 94 189 385 390 458 316z"/>
<path d="M6616 1715 c-33 -13 -84 -41 -113 -61 -85 -59 -221 -210 -283 -314
-93 -156 -253 -291 -424 -355 -38 -14 -70 -24 -73 -22 -5 6 191 311 236 367
20 25 85 96 144 158 104 109 127 142 127 183 0 29 -36 59 -71 59 -42 0 -82
-42 -152 -160 -69 -118 -165 -237 -257 -323 -110 -102 -202 -137 -269 -103
-48 25 -58 55 -36 113 14 38 50 80 172 202 84 84 156 163 159 176 16 64 -27
106 -90 88 -34 -9 -64 -50 -255 -353 -120 -190 -148 -255 -131 -306 14 -43 44
-64 90 -64 98 0 232 75 371 207 l82 78 -58 -95 c-32 -52 -82 -131 -110 -175
l-52 -80 -83 -25 c-187 -54 -396 -182 -517 -314 -135 -148 -159 -269 -64 -333
45 -31 76 -29 152 8 91 45 280 239 424 437 61 83 114 151 118 151 5 1 43 15
85 32 106 42 228 126 333 229 l89 86 0 -49 c0 -126 93 -191 221 -154 74 22
168 81 237 148 l57 57 71 -5 c80 -6 134 12 204 67 l39 31 -41 -71 c-54 -94
-63 -162 -24 -202 66 -72 225 -7 404 166 l53 51 -25 -55 c-35 -74 -34 -129 0
-164 50 -49 149 -29 271 56 91 62 303 279 303 310 0 5 -39 -26 -86 -71 -170
-162 -281 -213 -348 -160 -32 26 -34 64 -5 122 12 24 85 105 169 187 95 94
149 155 154 174 14 57 -44 101 -103 77 -27 -12 -84 -90 -191 -266 -52 -85 -92
-128 -190 -207 -125 -102 -220 -133 -268 -88 -28 26 -28 68 -1 123 12 24 85
105 169 187 95 94 149 155 154 174 13 52 -40 98 -94 81 -31 -10 -54 -38 -142
-177 -118 -187 -227 -278 -334 -278 -65 0 -70 17 -29 86 55 91 78 161 79 234
1 73 -17 111 -65 136 -42 21 -116 17 -183 -11z m179 -59 c29 -29 39 -78 27
-131 -6 -27 -13 -39 -23 -36 -54 16 -77 12 -112 -19 -41 -35 -77 -103 -77
-144 0 -15 7 -40 15 -55 13 -26 13 -30 -8 -48 -66 -59 -165 -92 -223 -73 -100
33 -96 146 11 310 93 144 199 220 307 220 49 0 63 -4 83 -24z m-1251 -843
c-37 -58 -164 -221 -218 -280 -113 -124 -225 -174 -276 -123 -73 73 45 231
248 334 41 21 243 95 261 96 2 0 -5 -12 -15 -27z"/>
<path d="M7956 1209 c-37 -29 -56 -70 -56 -122 0 -109 119 -99 164 14 39 97
-32 168 -108 108z"/>
</g>
</svg>
